<?xml version="1.0" ?><!DOCTYPE svg  PUBLIC '-//W3C//DTD SVG 1.0//EN'  'http://www.w3.org/TR/2001/REC-SVG-20010904/DTD/svg10.dtd'><svg height="110px" style="enable-background:new 0 0 110 110;" version="1.0" viewBox="0 0 110 110" width="110px" xml:space="preserve" xmlns="http://www.w3.org/2000/svg" xmlns:xlink="http://www.w3.org/1999/xlink"><g id="Artboard"/><g id="Multicolor"><circle cx="55" cy="55" r="55" style="fill:#25B7D3;"/><g><g><path d="M23,26.84c0-2.121,1.719-3.84,3.84-3.84H55l16,13.44v46.72c0,2.121-1.719,3.84-3.84,3.84H26.84     C24.719,87,23,85.281,23,83.16V26.84z" style="fill:#FFFFFF;"/><path d="M55,23v9.6c0,2.121,1.719,3.84,3.84,3.84H71L55,23z" style="fill:#F0F1F1;"/></g><path d="M55,41c0,0.552-0.448,1-1,1H36c-0.552,0-1-0.448-1-1s0.448-1,1-1h18C54.552,40,55,40.448,55,41z" style="fill:#E2E4E5;"/><path d="M67,49c0,0.552-0.448,1-1,1H36c-0.552,0-1-0.448-1-1s0.448-1,1-1h30C66.552,48,67,48.448,67,49z" style="fill:#E2E4E5;"/><path d="M67,57c0,0.552-0.448,1-1,1H36c-0.552,0-1-0.448-1-1s0.448-1,1-1h30C66.552,56,67,56.448,67,57z" style="fill:#E2E4E5;"/><path d="M67,65c0,0.552-0.448,1-1,1H36c-0.552,0-1-0.448-1-1s0.448-1,1-1h30C66.552,64,67,64.448,67,65z" style="fill:#E2E4E5;"/><rect height="5" style="fill:#FBE158;" width="17" x="36" y="73"/><path d="M52.042,52.833l26.376-16.785c0.791-0.503,1.825-0.39,2.488,0.273l5.294,5.294    c0.663,0.663,0.776,1.697,0.273,2.488L69.688,70.479L52.042,52.833z" style="fill:#F3B607;"/><polygon points="51.776,67.693 47,73 52.672,73 54.877,70.794   " style="fill:#3E3E3F;"/><path d="M69.69,70.459l-8.88-8.88l-0.011,0.011l-8.757-8.757c0.023,4.967-0.135,8.546-1.891,13.234    l5.672,5.672c4.688-1.755,8.897-1.284,13.865-1.261l-0.021-0.02C69.675,70.459,69.682,70.459,69.69,70.459z" style="fill:#CFD3D4;"/><path d="M80.905,36.322c-0.663-0.663-1.697-0.776-2.488-0.273L52.042,52.833l8.634,8.633l22.688-22.688    L80.905,36.322z" style="fill:#FACB1B;"/><path d="M52.042,52.833c0.023,4.967-0.135,8.546-1.891,13.234l2.962,2.961l7.562-7.562L52.042,52.833z" style="fill:#E2E4E5;"/></g></g></svg>