<?xml version="1.0" ?><!DOCTYPE svg  PUBLIC '-//W3C//DTD SVG 1.1//EN'  'http://www.w3.org/Graphics/SVG/1.1/DTD/svg11.dtd'><svg enable-background="new 0 0 128 128" height="128px" id="Layer_1" version="1.1" viewBox="0 0 128 128" width="128px" xml:space="preserve" xmlns="http://www.w3.org/2000/svg" xmlns:xlink="http://www.w3.org/1999/xlink"><circle cx="64" cy="64" fill="#4B87C8" r="64"/><g><g><path d="M24.924,93.173c0,1.375,1.125,2.499,2.5,2.499h12.454c1.375,0,2.5-1.124,2.5-2.499V61.882    c0-1.375-1.125-2.5-2.5-2.5H27.424c-1.375,0-2.5,1.125-2.5,2.5V93.173z" fill="#FFFFFF"/></g><path d="M52.213,58.251c2.571-2.736,4.18-7.558,5.79-11.906c1.612-4.345,6.871-8.417,8.69-10.455   c3.572-4.009,4.682-11.103,5.005-13.997C72.018,18.998,73.449,18,75.232,18c2.908,0,6.322,5.829,6.322,11.936   c0,4.677-1.022,5.574-3.115,8.951c-2.094,3.38-4.336,6.817-3.207,8.106c1.127,1.285,2.881,2.414,5.935,2.089   c3.058-0.321,14.801,0,16.894,0.807c2.094,0.805,4.666,4.182,4.985,6.435c0.322,2.252-2.088,5.469-2.413,6.594   c-0.322,1.128,2.413,3.221,2.413,6.112c0,2.413-3.698,5.146-3.378,6.274c0.318,1.127,1.771,3.698,0.938,5.65   c-0.756,1.771-2.865,3.999-3.188,4.805c-0.322,0.807,0.479,3.542,0.643,4.508c0.157,0.967-1.609,4.022-6.759,5.311   c-4.262,1.066-11.405,2.253-16.073,2.412c-4.664,0.162-11.438-1.607-16.583-3.057c-5.152-1.447-11.265-1.447-11.265-1.447V61.891   C47.378,61.891,49.631,60.99,52.213,58.251z" fill="#FFFFFF"/></g></svg>